<svg width="256px" height="256px" preserveAspectRatio="xMidYMid" version="1.1" viewBox="0 0 256 256" xmlns="http://www.w3.org/2000/svg">
 <defs>
  <linearGradient id="a" x1="-90" x2="90" y1="90" y2="270" gradientUnits="userSpaceOnUse">
   <stop stop-color="#03303d" offset="0"/>
   <stop stop-color="#15c1ff" offset="1"/>
  </linearGradient>
 </defs>
 <path transform="rotate(-45)" d="m-79.197 85.838h158.39c8.8555 0 15.985 7.1291 15.985 15.985v158.39c0 8.8554-7.1291 15.985-15.985 15.985h-158.39c-8.8555 0-15.985-7.1291-15.985-15.985v-158.39c0-8.8555 7.1291-15.985 15.985-15.985z" fill="url(#a)" stroke-width=".70268" style="paint-order:fill markers stroke"/>
 <path d="m128 0c-4.086-2.6517e-7 -8.1719 1.5664-11.303 4.6973l-112 112c-6.2618 6.2618-6.2618 16.344 0 22.605l112 112c3.1309 3.1309 7.2168 4.6973 11.303 4.6973z" fill="#004760" stroke-width=".70268" style="paint-order:fill markers stroke"/>
 <path d="m128 54a20 20 0 0 0-20 20 20 20 0 0 0 13 18.734v70.531a20 20 0 0 0-13 18.734 20 20 0 0 0 20 20 20 20 0 0 0 20-20 20 20 0 0 0-1.8984-8.5039l27.395-27.395a20 20 0 0 0 8.5039 1.8984 20 20 0 0 0 20-20 20 20 0 0 0-20-20 20 20 0 0 0-20 20 20 20 0 0 0 1.709 8.0879l-27.621 27.621a20 20 0 0 0-1.0879-0.44336v-70.531a20 20 0 0 0 13-18.734 20 20 0 0 0-20-20z" fill="#fff" stroke-width=".9421" style="paint-order:fill markers stroke"/>
</svg>
