<svg enable-background="new 0 0 128 128" viewBox="0 0 128 128" xmlns="http://www.w3.org/2000/svg" xmlns:xlink="http://www.w3.org/1999/xlink"><linearGradient id="a" gradientTransform="matrix(1 0 0 -1 0 -584.7243)" gradientUnits="userSpaceOnUse" x1="64" x2="64" y1="-630.8914" y2="-664.2243"><stop offset="0" stop-color="#212121"/><stop offset=".7026" stop-color="#616161"/></linearGradient><linearGradient id="b" gradientTransform="matrix(1 0 0 -1 0 -584.7243)" gradientUnits="userSpaceOnUse" x1="25.8673" x2="101.8673" y1="-643.7743" y2="-643.7743"><stop offset=".0012001" stop-color="#bfbebe"/><stop offset=".15" stop-color="#212121" stop-opacity="0"/><stop offset=".8505" stop-color="#212121" stop-opacity="0"/><stop offset="1" stop-color="#bfbebe"/></linearGradient><linearGradient id="c" gradientTransform="matrix(1 0 0 -1 0 127.8898)" gradientUnits="userSpaceOnUse" x1="3.9" x2="122.1" y1="79.8398" y2="79.8398"><stop offset=".0012001" stop-color="#bfbebe"/><stop offset=".3" stop-color="#212121" stop-opacity="0"/><stop offset=".7" stop-color="#212121" stop-opacity="0"/><stop offset="1" stop-color="#bfbebe"/></linearGradient><linearGradient id="d" gradientTransform="matrix(1 0 0 -1 0 -584.7243)" gradientUnits="userSpaceOnUse" x1="63.1" x2="63.1" y1="-589.0576" y2="-627.5584"><stop offset="0" stop-color="#9e9e9e"/><stop offset=".7151" stop-color="#616161"/></linearGradient><radialGradient id="e" cx="64.1375" cy="-1462.6552" gradientTransform="matrix(1 0 0 -.3995 0 -548.3682)" gradientUnits="userSpaceOnUse" r="8.6233"><stop offset=".3965" stop-color="#757575"/><stop offset=".9968" stop-color="#424242"/></radialGradient><path d="m102 66s-10.7 11.8-38.2 11.8-37.8-11.8-37.8-11.8v-25.7h76z" fill="url(#a)"/><path d="m102 66s-10.7 11.8-38.2 11.8-37.8-11.8-37.8-11.8v-25.7h76z" fill="url(#b)" opacity=".4"/><path d="m63 59.8-59-19.4-.1-3.9 118.2-.2v4z" fill="#353535"/><path d="m63 59.8-59-19.4-.1-3.9 118.2-.2v4z" fill="url(#c)" opacity=".5"/><path d="m63 55.9-59-19.4 59-15.7 59.2 15.5z" fill="url(#d)"/><g fill="#ffb300"><path d="m120.2 35.3h-55.7c-1 0-1.9.7-2 1.6-.2 1.2.8 2.3 1.9 2.3h51.8c1.1 0 2 .9 2 2v55c0 1 .7 1.9 1.6 2.1 1.2.2 2.3-.8 2.3-1.9v-59.1c.1-1.1-.8-2-1.9-2z"/><path d="m120.2 98.3c-1.1 0-2-.9-2-2v-59c0-1.1.9-2 2-2s2 .9 2 2v59.1c0 1.1-.9 1.9-2 1.9z"/><path d="m118.2 107.2c-2.2 0-6-2.7-5.9-4.9 0-.7.5-1.6 1.1-2.3 2-2.5 3.9-5.7 3.9-8.9v-3.6c0-1.1.9-2 2-2h1.9c1.1 0 2 .9 2 2 0 0 1.1 9.3-1 15.8-1.5 2.2-1.8 3.9-4 3.9z"/><circle cx="120.2" cy="85.2" r="4.1"/><path d="m120.2 98.3c-1.1 0-2-.9-2-2v-59c0-1.1.9-2 2-2s2 .9 2 2v59.1c0 1.1-.9 1.9-2 1.9z"/><path d="m118.2 107.2c-2.2 0-6-2.7-5.9-4.9 0-.7.5-1.6 1.1-2.3 2-2.5 3.9-5.7 3.9-8.9v-3.6c0-1.1.9-2 2-2h1.9c1.1 0 2 .9 2 2 0 0 1.1 9.3-1 15.8-1.5 2.2-1.8 3.9-4 3.9z"/><circle cx="120.2" cy="85.2" r="4.1"/></g><path d="m62.5 37.3c0-1.1.9-2 2-2h55.8c1.1 0 2 .9 2 2s-.9 2-2 2h-55.9c-1-.1-1.9-.9-1.9-2z" fill="#ffca28"/><ellipse cx="64" cy="37.3" fill="url(#e)" rx="8.1" ry="3.4"/></svg>